# xmcd CD database file
#
# Track frame offsets:
#	150
#	13667
#	33755
#	52725
#	66865
#	86125
#	111687
#	134077
#	151592
#	171620
#
# Disc length: 2456 seconds
#
# Revision: 0
# Processed by: cddbd v1.5.1PL0 Copyright (c) Steve Scherf et al.
# Submitted via: CDex 1.51
#
DISCID=8609960a
DTITLE=亜蘭知子 - 神経衰弱
DYEAR=1981
DGENRE=Pop
TTITLE0=SECRET DESIRE(下心)
TTITLE1=悲しきボードビリアン
TTITLE2=So Get Up(要塞の女たち)
TTITLE3=乱れたベッド
TTITLE4=狂った歯車
TTITLE5=完全犯罪
TTITLE6=雨のかわりに毒薬を
TTITLE7=神経衰弱
TTITLE8=ノアの箱舟
TTITLE9=Meditation(冥想)
EXTD=YEAR: 1981
EXTT0=
EXTT1=
EXTT2=
EXTT3=
EXTT4=
EXTT5=
EXTT6=
EXTT7=
EXTT8=
EXTT9=
PLAYORDER=
